HIERARCHY
ROOT joint_Root
{
	OFFSET 0.0 0.0 0.0
	CHANNELS 6 Xposition Yposition Zposition Zrotation Xrotation Yrotation 
	JOINT Hips
	{
		OFFSET -17.1583 93.1646 452.98
		CHANNELS 6 Xposition Yposition Zposition Zrotation Xrotation Yrotation 
		JOINT Spine
		{
			OFFSET 15.7357 0.0 0.0
			CHANNELS 6 Xposition Yposition Zposition Zrotation Xrotation Yrotation 
			JOINT Chest
			{
				OFFSET 8.98455 -0.406207 0.0
				CHANNELS 6 Xposition Yposition Zposition Zrotation Xrotation Yrotation 
				JOINT Neck
				{
					OFFSET 16.3773 0.0 0.0
					CHANNELS 6 Xposition Yposition Zposition Zrotation Xrotation Yrotation 
					JOINT Head
					{
						OFFSET 6.45672 0.0 0.0
						CHANNELS 6 Xposition Yposition Zposition Zrotation Xrotation Yrotation 
						End Site
						{
							OFFSET 0.0 0.0 0.0
						}
					}
				}
				JOINT Shoulder_L
				{
					OFFSET 12.9942 -0.242716 4.98039
					CHANNELS 6 Xposition Yposition Zposition Zrotation Xrotation Yrotation 
					JOINT UpperArm_L
					{
						OFFSET 5.34809 0.0 0.0
						CHANNELS 6 Xposition Yposition Zposition Zrotation Xrotation Yrotation 
						JOINT LowerArm_L
						{
							OFFSET 24.3286 1.87007e-05 0.0
							CHANNELS 6 Xposition Yposition Zposition Zrotation Xrotation Yrotation 
							JOINT Hand_L
							{
								OFFSET 22.2916 0.0 0.0
								CHANNELS 6 Xposition Yposition Zposition Zrotation Xrotation Yrotation 
								End Site
								{
									OFFSET 0.0 0.0 0.0
								}
							}
						}
					}
				}
				JOINT Shoulder_R
				{
					OFFSET 12.9945 -0.242716 -4.98039
					CHANNELS 6 Xposition Yposition Zposition Zrotation Xrotation Yrotation 
					JOINT UpperArm_R
					{
						OFFSET -5.34813 0.0 0.0
						CHANNELS 6 Xposition Yposition Zposition Zrotation Xrotation Yrotation 
						JOINT LowerArm_R
						{
							OFFSET -24.3289 0.000322201 0.0
							CHANNELS 6 Xposition Yposition Zposition Zrotation Xrotation Yrotation 
							JOINT Hand_R
							{
								OFFSET -22.2915 -0.000108084 0.0
								CHANNELS 6 Xposition Yposition Zposition Zrotation Xrotation Yrotation 
								End Site
								{
									OFFSET 0.0 0.0 0.0
								}
							}
						}
					}
				}
			}
		}
		JOINT UpperLeg_L
		{
			OFFSET -2.19248 -6.46944 0.0
			CHANNELS 6 Xposition Yposition Zposition Zrotation Xrotation Yrotation 
			JOINT LowerLeg_L
			{
				OFFSET 39.0811 0.0 -1.23785e-05
				CHANNELS 6 Xposition Yposition Zposition Zrotation Xrotation Yrotation 
				JOINT Foot_L
				{
					OFFSET 40.9854 0.0 -1.26872e-05
					CHANNELS 6 Xposition Yposition Zposition Zrotation Xrotation Yrotation 
					JOINT Toes_L
					{
						OFFSET 11.7543 0.0 0.0
						CHANNELS 6 Xposition Yposition Zposition Zrotation Xrotation Yrotation 
						End Site
						{
							OFFSET 0.0 0.0 0.0
						}
					}
				}
			}
		}
		JOINT UpperLeg_R
		{
			OFFSET -2.19251 6.46944 0.0
			CHANNELS 6 Xposition Yposition Zposition Zrotation Xrotation Yrotation 
			JOINT LowerLeg_R
			{
				OFFSET -39.0811 -0.00228153 -0.0401928
				CHANNELS 6 Xposition Yposition Zposition Zrotation Xrotation Yrotation 
				JOINT Foot_R
				{
					OFFSET -40.9854 0.0 0.0
					CHANNELS 6 Xposition Yposition Zposition Zrotation Xrotation Yrotation 
					JOINT Toes_R
					{
						OFFSET -11.7543 0.0 0.0
						CHANNELS 6 Xposition Yposition Zposition Zrotation Xrotation Yrotation 
						End Site
						{
							OFFSET 0.0 0.0 0.0
						}
					}
				}
			}
		}
	}
}
MOTION
Frames:	4
Frame Time:	0.0333333
0.000000 0.000000 0.000000 0.000000 0.000000 -0.000000 145.233000 92.821400 202.534000 112.217000 -78.406200 17.817500 15.735700 0.000005 -0.000001 124.611000 85.333600 -126.135000 8.984550 -0.406207 -0.000000 -0.008260 5.403100 -3.048060 16.377300 -0.000001 -0.000001 2.197970 -0.783501 -1.703280 6.456720 -0.000001 -0.000000 -7.301430 -5.107300 -1.498880 12.994200 -0.242716 4.980390 -94.044500 9.080910 -65.867800 5.348090 -0.000007 -0.000001 -66.578200 -16.950400 22.511400 24.328600 0.000019 0.000005 0.775938 42.092600 -1.157370 22.291600 -0.000001 0.000005 -14.511200 4.999180 7.337000 12.994500 -0.242716 -4.980390 88.617100 3.985060 -70.844800 -5.348130 -0.000001 -0.000004 -59.864600 35.222300 -32.625900 -24.328900 0.000322 -0.000009 -0.806759 -0.593905 -53.600200 -22.291500 -0.000108 -0.000004 1.308490 5.466180 -5.228010 -2.192480 -6.469440 -0.000000 -171.025000 -6.046960 -17.861000 39.081100 -0.000007 -0.000012 0.011922 -0.044066 15.139200 40.985400 -0.000006 -0.000013 -7.269830 -1.592470 -60.369400 11.754300 -0.000000 0.000003 0.002365 0.065203 -13.932200 -2.192510 6.469440 -0.000001 178.449000 -4.132030 -171.699000 -39.081100 -0.002282 -0.040193 0.000474 0.013503 11.963900 -40.985400 0.000008 0.000006 2.979780 15.477900 -65.128500 -11.754300 -0.000006 -0.000006 0.001629 0.034559 -15.171300
0.000000 0.000000 0.000000 0.000000 0.000000 -0.000000 142.476000 92.290000 205.140000 111.994000 -80.028800 17.000000 15.735700 0.000005 -0.000001 128.021000 85.309200 -129.300000 8.984550 -0.406207 -0.000000 -0.306285 5.867430 -2.541090 16.377300 -0.000001 -0.000001 1.510090 -0.977929 -1.663460 6.456720 -0.000001 -0.000000 -7.601440 -5.368120 -1.603040 12.994200 -0.242716 4.980390 -93.999100 9.053960 -66.046100 5.348090 -0.000007 -0.000001 -66.184800 -17.230400 22.674300 24.328600 0.000019 0.000005 0.384944 45.751800 -0.537301 22.291600 -0.000001 0.000005 -17.186700 4.993590 7.455440 12.994500 -0.242716 -4.980390 88.809800 3.480190 -71.106800 -5.348130 -0.000001 -0.000004 -61.977000 33.520900 -31.198600 -24.328900 0.000322 -0.000009 -5.182020 -3.700750 -54.553600 -22.291500 -0.000108 -0.000004 2.986320 5.492560 -6.236170 -2.192480 -6.469440 -0.000000 -171.639000 -8.802170 -16.831700 39.081100 -0.000007 -0.000012 0.003159 -0.034423 5.244930 40.985400 -0.000006 -0.000013 -11.494500 5.423500 -60.710000 11.754300 -0.000000 0.000003 0.002417 0.069695 -13.750100 -2.192510 6.469440 -0.000001 177.551000 -5.303780 -171.075000 -39.081100 -0.002282 -0.040193 0.001018 0.010070 12.951900 -40.985400 0.000008 0.000006 1.912830 16.128200 -64.711400 -11.754300 -0.000006 -0.000006 -0.001827 -0.026536 -17.652100
0.000000 0.000000 0.000000 0.000000 0.000000 -0.000000 139.358000 91.597300 207.898000 112.327000 -80.656100 17.059100 15.735700 0.000005 -0.000001 127.753000 85.399500 -128.904000 8.984550 -0.406207 -0.000000 -0.430886 5.714490 -2.282460 16.377300 -0.000001 -0.000001 1.006570 -1.272940 -1.553780 6.456720 -0.000001 -0.000000 -8.057810 -5.407160 -1.326640 12.994200 -0.242716 4.980390 -94.130400 9.517050 -66.406300 5.348090 -0.000007 -0.000001 -65.887200 -15.741800 21.476400 24.328600 0.000019 0.000005 0.704860 48.835000 -0.936174 22.291600 -0.000001 0.000005 -16.537900 4.976220 7.820970 12.994500 -0.242716 -4.980390 88.784300 3.629800 -71.469500 -5.348130 -0.000001 -0.000004 -63.972300 31.537600 -28.743300 -24.328900 0.000322 -0.000009 -9.405520 -6.973860 -53.756000 -22.291500 -0.000108 -0.000004 3.238360 5.509100 -6.904220 -2.192480 -6.469440 -0.000000 -172.838000 -9.039320 -18.382200 39.081100 -0.000007 -0.000012 -0.003309 0.053213 3.557580 40.985400 -0.000006 -0.000013 -13.962500 10.290600 -61.422500 11.754300 -0.000000 0.000003 0.002478 0.078649 -13.387100 -2.192510 6.469440 -0.000001 176.577000 -6.372700 -170.760000 -39.081100 -0.002282 -0.040193 0.001349 0.007036 15.717300 -40.985400 0.000008 0.000006 1.578410 15.726600 -64.525800 -11.754300 -0.000006 -0.000006 -0.011074 -0.111492 -21.117000
0.000000 0.000000 0.000000 0.000000 0.000000 -0.000000 135.710000 90.767800 210.768000 111.778000 -80.779400 16.358900 15.735700 0.000005 -0.000001 126.005000 85.598500 -127.037000 8.984550 -0.406207 -0.000000 -0.595492 5.249050 -2.037000 16.377300 -0.000001 -0.000001 0.649274 -1.526070 -1.255400 6.456720 -0.000001 -0.000000 -8.646790 -5.513050 -0.655395 12.994200 -0.242716 4.980390 -94.172400 9.812130 -66.825700 5.348090 -0.000007 -0.000001 -66.024000 -13.024400 19.348000 24.328600 0.000019 0.000005 1.702600 47.739500 -2.299890 22.291600 -0.000001 0.000005 -12.732600 4.927230 8.829480 12.994500 -0.242716 -4.980390 88.788400 3.648450 -71.614900 -5.348130 -0.000001 -0.000004 -66.560900 29.159400 -25.190300 -24.328900 0.000322 -0.000009 -9.755070 -8.053080 -50.821600 -22.291500 -0.000108 -0.000004 3.404230 5.501180 -6.580840 -2.192480 -6.469440 -0.000000 -174.462000 -8.690630 -20.931700 39.081100 -0.000007 -0.000012 -0.015072 0.113718 7.549380 40.985400 -0.000006 -0.000013 -13.975800 12.451000 -62.258300 11.754300 -0.000000 0.000003 0.002425 0.070524 -13.716500 -2.192510 6.469440 -0.000001 175.614000 -6.624240 -170.556000 -39.081100 -0.002282 -0.040193 0.003316 0.000019 19.288600 -40.985400 0.000008 0.000006 1.010790 15.407900 -63.113100 -11.754300 -0.000006 -0.000006 -0.034600 -0.237822 -26.328200
